<svg xmlns="http://www.w3.org/2000/svg" viewBox="0 0 39.17 88.71"><defs><style>.cls-1{fill:#f9f3e9;}.cls-2{fill:#f6a33e;}.cls-3{fill:none;stroke:#1d1d1b;stroke-miterlimit:10;}</style></defs><title>alcohol</title><g id="Layer_2" data-name="Layer 2"><g id="Layer_1-2" data-name="Layer 1"><ellipse class="cls-1" cx="12.24" cy="5.76" rx="6.58" ry="5.76"/><ellipse class="cls-1" cx="22.08" cy="5.76" rx="6.58" ry="5.76"/><path class="cls-2" d="M25.46,8.35H2.29V27.06a9.19,9.19,0,0,0,.38,2.6c1.64,5.58,5.41,19,5.89,28.21C9.1,68.36,5.24,81.22,5.07,83.48s-.32,4.73-.32,4.73H36.63s-.16-2.47-.32-4.73-4-15.12-3.48-25.61c.47-9.17,4.25-22.63,5.89-28.21a9.18,9.18,0,0,0,.37-2.6V8.35Z"/><path class="cls-1" d="M9.3,1.64H33.88a5.29,5.29,0,0,1,5.29,5.29V24.08a0,0,0,0,1,0,0H2.29a0,0,0,0,1,0,0V8.65A7,7,0,0,1,9.3,1.64Z"/><path class="cls-3" d="M23.67,8.35H.5V27.06a9.18,9.18,0,0,0,.37,2.6c1.64,5.58,5.42,19,5.9,28.21.54,10.49-3.33,23.35-3.49,25.61S3,88.21,3,88.21H34.84s-.16-2.47-.32-4.73-4-15.12-3.49-25.61c.48-9.17,4.26-22.63,5.9-28.21a9.55,9.55,0,0,0,.37-2.6V8.35Z"/><path class="cls-1" d="M22.08,21.6H25.4a0,0,0,0,1,0,0v8.73A1.66,1.66,0,0,1,23.74,32h0a1.66,1.66,0,0,1-1.66-1.66V21.6A0,0,0,0,1,22.08,21.6Z"/><path class="cls-1" d="M27.39,21.6h2.54a0,0,0,0,1,0,0v6.64a1.27,1.27,0,0,1-1.27,1.27h0a1.27,1.27,0,0,1-1.27-1.27V21.6A0,0,0,0,1,27.39,21.6Z"/><circle class="cls-1" cx="12.24" cy="38.52" r="0.75"/><circle class="cls-1" cx="14.53" cy="45.99" r="0.57"/><circle class="cls-1" cx="29.35" cy="41.69" r="1.13"/></g></g></svg>