<svg xmlns="http://www.w3.org/2000/svg" viewBox="0 0 29.71 102.29"><defs><style>.cls-1,.cls-2,.cls-3{fill:none;stroke-miterlimit:10;stroke-width:0.75px;}.cls-1,.cls-2{stroke:#000;}.cls-2,.cls-3{stroke-linecap:round;}.cls-3{stroke:#1d1d1b;}.cls-4{fill:#1d1d1b;}.cls-5{fill:#7d4e24;}</style></defs><title>fris</title><g id="Layer_2" data-name="Layer 2"><g id="Layer_1-2" data-name="Layer 1"><path class="cls-1" d="M26.93,87.25a38.11,38.11,0,0,1-.12-13.72l1.64-9.42A14.37,14.37,0,0,0,27.92,53L20.08,21.67a2.52,2.52,0,0,0,1.45-2.3l0-2.69a3.3,3.3,0,0,0-3.3-3.24l-7.49.07a3.32,3.32,0,0,0-3.27,3.33l0,2.66A2.52,2.52,0,0,0,9,21.77L1.68,53.18a14.52,14.52,0,0,0-.12,11.74L3,71.66a45.41,45.41,0,0,1,.16,17.88L1.59,97.61a3.61,3.61,0,0,0,3.58,4.3l20.21-.18a3.61,3.61,0,0,0,3.51-4.3Z"/><path class="cls-2" d="M9.25,15.59a43.91,43.91,0,0,0,5.22.62,20.93,20.93,0,0,0,4.9-.71"/><path class="cls-1" d="M23.58,81.89c.14-3,2.93-23.53,2.93-23.53,0-1.69-5.27-3-11.74-3S3.08,56.88,3.09,58.57a.89.89,0,0,0,.15.45c.61,1.9,2.93,9.45,3.14,15.51.24,7-4.16,23.64-2.93,24.67s19.31,1.38,22.38-.2S23.43,84.87,23.58,81.89Z"/><path class="cls-3" d="M5,58.49s5.69,2.24,9.88,2.21a61.74,61.74,0,0,0,9.88-1.24"/><line class="cls-3" x1="12.69" y1="5.2" x2="9.9" y2="88.43"/><polygon class="cls-4" points="28.17 2.96 12.44 6.74 12.28 4.28 27.37 0 28.17 2.96"/><circle class="cls-4" cx="20.78" cy="62.57" r="0.39"/><circle class="cls-4" cx="19.21" cy="50.83" r="0.39"/><circle class="cls-4" cx="22.5" cy="65.13" r="0.77"/><circle class="cls-4" cx="20.93" cy="49.65" r="0.77"/><circle class="cls-4" cx="21.09" cy="67.59" r="0.66"/><circle class="cls-4" cx="16.56" cy="65.2" r="0.46"/><circle class="cls-4" cx="18.89" cy="71.84" r="0.51"/><path class="cls-5" d="M25.21,83c.15-3,2.94-23.53,2.94-23.53,0-1.69-5.27-3-11.74-3S4.71,58,4.72,59.68a1.14,1.14,0,0,0,.15.45C5.49,62,7.81,69.58,8,75.64c.24,7-4.16,23.64-2.92,24.67s19.3,1.38,22.37-.2S25.06,86,25.21,83Z"/><path class="cls-1" d="M23.58,81.89c.14-3,2.93-23.53,2.93-23.53,0-1.69-5.27-3-11.74-3S3.08,56.88,3.09,58.57a.89.89,0,0,0,.15.45c.61,1.9,2.93,9.45,3.14,15.51.24,7-4.16,23.64-2.93,24.67s19.31,1.38,22.38-.2S23.43,84.87,23.58,81.89Z"/><path class="cls-3" d="M5,58.49s5.69,2.24,9.88,2.21a61.74,61.74,0,0,0,9.88-1.24"/><circle class="cls-4" cx="20.78" cy="62.57" r="0.39"/><circle class="cls-4" cx="19.21" cy="50.83" r="0.39"/><circle class="cls-4" cx="22.5" cy="65.13" r="0.77"/><circle class="cls-4" cx="20.93" cy="49.65" r="0.77"/><circle class="cls-4" cx="21.09" cy="67.59" r="0.66"/><circle class="cls-4" cx="16.56" cy="65.2" r="0.46"/><circle class="cls-4" cx="18.89" cy="71.84" r="0.51"/></g></g></svg>