<svg xmlns="http://www.w3.org/2000/svg" viewBox="0 0 53.22 75.93"><defs><style>.cls-1{fill:#9e886a;}.cls-2,.cls-3{fill:none;stroke:#1d1d1b;stroke-miterlimit:10;}.cls-3{stroke-linecap:round;}</style></defs><title>warm</title><g id="Layer_2" data-name="Layer 2"><g id="Layer_1-2" data-name="Layer 1"><path class="cls-1" d="M47.51,48.89H2.86a23.17,23.17,0,0,0-.32,3.85,22.86,22.86,0,0,0,11.72,20H36.11a22.86,22.86,0,0,0,11.72-20A23.17,23.17,0,0,0,47.51,48.89Z"/><rect class="cls-1" x="14.51" y="72.87" width="21.59" height="2.4"/><path class="cls-1" d="M46.26,49.88l.38,2.39c2-1.26,4-.16,3.45,2.64-.36,1.86-2.71,3.85-4.33,3.85L45,60.81c2.79,0,7.44-3.52,8.07-6.75C54,49.22,49.11,46.89,46.26,49.88Z"/><path class="cls-2" d="M45.47,49.05H.83A23.16,23.16,0,0,0,.5,52.9a22.88,22.88,0,0,0,11.72,20H34.07a22.86,22.86,0,0,0,11.72-20A23.17,23.17,0,0,0,45.47,49.05Zm-4.16,9.52A18.94,18.94,0,0,1,34,68.84a18.94,18.94,0,0,0,7.29-10.27,17.83,17.83,0,0,0,.45-7A17.83,17.83,0,0,1,41.31,58.57Z"/><rect class="cls-2" x="12.47" y="73.03" width="21.59" height="2.4"/><path class="cls-2" d="M45.79,50l.39,2.39c2-1.26,4-.16,3.44,2.64-.36,1.86-2.71,3.85-4.33,3.85l-.76,2c2.79,0,7.44-3.52,8.07-6.75C53.54,49.38,48.64,47.05,45.79,50Z"/><path class="cls-3" d="M18,41.7c-.36.2-3.82-3.38-5.06-8.18-1.5-5.86.84-11.43,2.23-14.74,2.3-5.46,5.2-8.37,4.47-13.25a11.69,11.69,0,0,0-.75-2.68c3.18,3.82,3.92,7,4,9.23.18,3.81-1.53,4.8-5.06,15.78-1.1,3.44-1.85,6.2-1.19,9.53C17.18,39.9,18.25,41.58,18,41.7Z"/><path class="cls-3" d="M26.06,47.72c-.19.1-2-1.78-2.66-4.3-.79-3.07.44-6,1.17-7.74,1.21-2.86,2.73-4.39,2.35-6.95a6.27,6.27,0,0,0-.39-1.41,8.16,8.16,0,0,1,2.11,4.85c.09,2-.81,2.51-2.66,8.28a9.4,9.4,0,0,0-.62,5C25.62,46.77,26.18,47.65,26.06,47.72Z"/></g></g></svg>