<svg xmlns="http://www.w3.org/2000/svg" viewBox="0 0 37.26 83.81"><defs><style>.cls-1{fill:#fff;}.cls-1,.cls-2,.cls-3{stroke:#1d1d1b;stroke-miterlimit:10;stroke-width:0.75px;}.cls-2,.cls-3{fill:none;}.cls-3{stroke-linecap:round;}.cls-4{fill:#e72f5a;}</style></defs><title>wijn</title><g id="Layer_2" data-name="Layer 2"><g id="Layer_1-2" data-name="Layer 1"><path class="cls-1" d="M.41,19.81,2.3.58,18.51.48l16.2-.1,2.13,19.2h0q0,.5,0,1h0C36.9,30.11,29.63,41,20.3,42.16l.23,38.13,10.1-.06a2.61,2.61,0,0,1,2.63,2.6.43.43,0,0,1-.43.44l-27.21.17A.44.44,0,0,1,5.18,83a2.62,2.62,0,0,1,2.6-2.64l10.1-.06-.24-38.09C8.1,41.47.48,30.47.42,20.79h0c0-.33,0-.66,0-1Z"/><path class="cls-2" d="M34,17.63c0,.3,0,.61,0,.93C34,28,27.23,39,18.75,39S3.32,28.23,3.26,18.75c0-.31,0-.62,0-.93h0l.17-2,30.34-.19.2,2Z"/><path class="cls-3" d="M30.69,5l.73,6"/><path class="cls-3" d="M31.35,18.15a19.78,19.78,0,0,1-.2,5.73,20.11,20.11,0,0,1-2.47,6.66"/><path class="cls-4" d="M36,17.63c0,.3,0,.61,0,.93C36,28,29.23,39,20.75,39S5.32,28.23,5.26,18.75c0-.31,0-.62,0-.93h0l.17-2,30.34-.19.2,2Z"/><path class="cls-2" d="M34,17.63c0,.3,0,.61,0,.93C34,28,27.23,39,18.75,39S3.32,28.23,3.26,18.75c0-.31,0-.62,0-.93h0l.17-2,30.34-.19.2,2Z"/><path class="cls-3" d="M31.35,18.15a19.78,19.78,0,0,1-.2,5.73,20.11,20.11,0,0,1-2.47,6.66"/></g></g></svg>